<svg width="42" height="28" fill="none" xmlns="http://www.w3.org/2000/svg"><path d="M38.782 27.988c-1.964 0-3.129-.992-3.218-2.42h1.878c0 .476.267 1.11 1.43 1.15.805 0 1.25-.477 1.25-.834-.089-.556-.805-.595-1.518-.716-.806-.115-1.43-.276-1.878-.473-.624-.319-.984-.995-.984-1.707 0-1.27 1.076-2.262 2.95-2.262 1.79 0 2.952.912 3.038 2.301h-1.786c0-.355-.09-.952-1.162-.952-.716 0-1.162.118-1.251.634 0 .715 1.519.676 2.68.952 1.073.279 1.79.952 1.79 1.907 0 1.747-1.43 2.42-3.219 2.42ZM4.56 16.27l6.166-3.533 3.307 5.598H5.721" fill="#000"/><path fill-rule="evenodd" clip-rule="evenodd" d="M18.427 20.712v7.065h-1.804v-7.065h1.804Z" fill="#000"/><path d="M1.697 24.35c0 1.109.983 2.022 2.053 2.022 1.165 0 2.056-.913 2.056-2.023 0-1.07-.891-2.022-2.056-2.022-1.07 0-2.053.952-2.053 2.022ZM3.66 28C1.697 28 0 26.372 0 24.35c0-2.023 1.697-3.612 3.66-3.612.806 0 1.522.2 2.146.633v-.554h1.79v7.022h-1.79v-.436c-.534.397-1.34.597-2.145.597Zm23.865-9.667L18.948 3.572 25.113 0l10.725 18.333h-8.312ZM9.92 24.35c0 1.11.895 2.023 2.056 2.023 1.07 0 2.057-.913 2.057-2.023 0-1.07-.987-2.022-2.057-2.022-1.162 0-2.056.952-2.056 2.022ZM11.886 28a3.633 3.633 0 0 1-3.664-3.65c0-2.023 1.608-3.612 3.664-3.612.802 0 1.519.2 2.146.633v-2.974h1.786v9.442h-1.786v-.436c-.627.397-1.344.597-2.146.597Zm-.088-18.04 6.255-3.49 6.882 11.863H18.41v1.746h-1.786v-1.746L11.798 9.96Zm29.043 10.174c-.449 0-.894-.397-.894-.873s.445-.873.894-.873c.535 0 .895.397.895.873s-.36.873-.895.873Zm0-1.625c-.449 0-.716.355-.716.752s.267.755.716.755c.446 0 .713-.358.713-.755s-.267-.752-.713-.752Z" fill="#000"/><path d="m41.026 19.74-.179-.397h-.178v.397h-.135v-.952h.402c.09 0 .268.121.268.279 0 .157-.09.236-.178.276l.178.397h-.178Zm-.179-.83h-.178v.314h.178c.179 0 .179-.039.179-.157 0-.082 0-.158-.179-.158Zm-11.81 5.439c0 1.11.896 2.023 2.057 2.023 1.073 0 2.053-.913 2.053-2.023 0-1.07-.98-2.023-2.053-2.023-1.162 0-2.056.953-2.056 2.023Zm1.965 3.65a3.632 3.632 0 0 1-3.66-3.65c0-2.023 1.607-3.611 3.66-3.611.805 0 1.521.2 2.146.633v-.555h1.7v7.023h-1.7v-.436c-.625.397-1.34.597-2.146.597Zm-10.18-3.65c0 1.11.983 2.023 2.056 2.023 1.162 0 2.056-.913 2.056-2.023 0-1.07-.894-2.023-2.056-2.023-1.073 0-2.056.953-2.056 2.023Zm4.112-5.952h1.786v9.442h-1.786v-.436c-.538.397-1.254.597-2.056.597-2.056 0-3.753-1.628-3.753-3.651 0-2.023 1.697-3.611 3.753-3.611.802 0 1.518.2 2.056.633v-2.974Z" fill="#000"/></svg>