<svg width="86" height="14" fill="none" xmlns="http://www.w3.org/2000/svg"><path d="M33.732 1.28c0-.34.138-.665.383-.905S34.693 0 35.04 0c.346 0 .679.135.924.375s.383.565.383.904a1.268 1.268 0 0 1-.4.874 1.323 1.323 0 0 1-1.815 0 1.268 1.268 0 0 1-.4-.874ZM54.356 9.811c0-.71.585-1.284 1.305-1.284.347 0 .68.136.927.376.245.24.384.567.384.907 0 .34-.139.667-.384.907-.246.241-.58.376-.927.376-.72 0-1.305-.575-1.305-1.283M12.28 9.256c-1.124 0-1.907-.875-1.907-2.125s.783-2.124 1.909-2.124c1.131 0 1.922.874 1.922 2.124 0 1.27-.774 2.125-1.923 2.125Zm0-6.117c-2.38 0-4.11 1.679-4.11 3.992 0 2.313 1.73 3.992 4.11 3.992 2.392 0 4.127-1.679 4.127-3.992 0-2.313-1.735-3.992-4.125-3.992h-.001ZM31.202 7.33a1.9 1.9 0 0 0-.311-.43l-.073-.074.077-.072c.109-.113.22-.246.328-.401l2.103-3.058h-2.552l-1.58 2.392c-.089.129-.27.193-.54.193h-.359V1.359c0-.905-.576-1.028-1.198-1.028h-1.065l.003 10.674h2.26V7.803h.213c.258 0 .432.03.513.167l1.247 2.304c.349.625.696.731 1.35.731h1.732l-1.291-2.088-.856-1.586Zm10.976-4.21c-1.15 0-1.884.5-2.295.924l-.137.135-.05-.184c-.12-.454-.527-.702-1.14-.702h-1.013l.007 7.708h2.245V7.45c0-.347.046-.648.14-.923.25-.833.947-1.35 1.818-1.35.701 0 .975.362.975 1.297v3.358c0 .798.378 1.171 1.194 1.171h1.069L44.986 6.1c0-1.948-.97-2.977-2.809-2.977V3.12Zm-7.11.175h-1.064l.007 5.961v1.748h1.136l.04.002.53-.002h.526v-.003h.003l.005-6.534c0-.789-.385-1.17-1.182-1.17v-.002ZM21.1 9.256c-1.125 0-1.909-.875-1.909-2.125s.784-2.124 1.91-2.124c1.129 0 1.923.874 1.923 2.124 0 1.27-.774 2.125-1.923 2.125Zm0-6.117c-2.383 0-4.112 1.679-4.112 3.992 0 2.313 1.73 3.992 4.113 3.992 2.388 0 4.126-1.679 4.126-3.992 0-2.313-1.738-3.992-4.126-3.992M69.23 9.256c-1.125 0-1.91-.875-1.91-2.125s.785-2.124 1.91-2.124c1.13 0 1.923.874 1.923 2.124 0 1.27-.774 2.125-1.923 2.125Zm0-6.117c-2.383 0-4.112 1.679-4.112 3.992 0 2.313 1.729 3.992 4.112 3.992 2.388 0 4.126-1.679 4.126-3.992 0-2.313-1.739-3.992-4.126-3.992ZM49.72 8.917c-1.227 0-1.664-1.048-1.664-2.03 0-.434.112-1.844 1.547-1.844.713 0 1.662.2 1.662 1.916 0 1.618-.84 1.958-1.544 1.958Zm2.712-5.641c-.427 0-.754.166-.919.47l-.062.118-.104-.09c-.362-.306-1.012-.67-2.067-.67-2.1 0-3.513 1.544-3.513 3.84 0 2.294 1.462 3.898 3.555 3.898.715 0 1.28-.164 1.728-.495l.173-.128v.214c0 1.03-.68 1.598-1.914 1.598-.6 0-1.145-.142-1.51-.272-.476-.141-.756-.024-.948.443l-.179.431-.252.631.156.081c.79.41 1.818.655 2.746.655 1.912 0 4.145-.958 4.145-3.653l.009-7.071h-1.044ZM3.919 9.168 2.09 9.166V7.028c0-.458.181-.695.58-.75H3.92c.889 0 1.464.549 1.465 1.437 0 .912-.561 1.452-1.465 1.452v.001ZM2.09 3.398v-.562c0-.493.213-.727.68-.758h.936c.802 0 1.282.47 1.282 1.257 0 .598-.33 1.298-1.253 1.298H2.09V3.399Zm4.162 2.135-.33-.181.288-.242c.336-.282.897-.918.897-2.013C7.108 1.418 5.78.335 3.721.335H1.105C.811.345.532.466.326.673a1.11 1.11 0 0 0-.326.77v9.524h3.768c2.287 0 3.763-1.219 3.763-3.107 0-1.016-.476-1.885-1.278-2.327ZM83.386 3.147a3.15 3.15 0 0 0-1.338.303 3.085 3.085 0 0 0-1.073.84l-.162.2-.127-.225c-.417-.742-1.132-1.118-2.127-1.118-1.044 0-1.744.57-2.07.908l-.212.226-.082-.297c-.119-.428-.507-.662-1.095-.662h-.944l-.01 7.68h2.144v-3.39c0-.298.039-.591.114-.898.205-.82.767-1.701 1.713-1.613.583.055.869.496.869 1.348v4.552h2.159v-3.39c0-.37.035-.649.12-.927.174-.782.762-1.584 1.674-1.584.66 0 .905.365.905 1.349v3.43c0 .775.353 1.122 1.146 1.122h1.008L86 6.1c0-1.96-.881-2.952-2.614-2.952Zm-19.51 5.188c-.007.008-.93.96-2.144.96-1.107 0-2.225-.665-2.225-2.148 0-1.282.867-2.177 2.108-2.177.402 0 .861.14.933.379l.01.04a.77.77 0 0 0 .284.41.8.8 0 0 0 .48.157l1.175.002V4.953c0-1.325-1.723-1.806-2.882-1.806-2.48 0-4.278 1.689-4.278 4.016 0 2.325 1.779 4.012 4.233 4.012 2.128 0 3.286-1.37 3.297-1.383l.061-.074-.93-1.51-.123.127Z" fill="#000"/></svg>