<svg width="32" height="24" fill="none" xmlns="http://www.w3.org/2000/svg"><path fill-rule="evenodd" clip-rule="evenodd" d="M22.484.732c1.152-.655 1.744-.554 1.758.1.015.857-.103 1.999-.177 2.822-.443 4.467-1.153 8.11-1.212 12.712 1.906-5.609 3.487-9.471 5.542-14.257C29.045.58 29.473.866 30.005.58c2.084-1.059 2.158-.404 1.877.906-1.005 4.753-3.576 19.783-3.975 22.084-.118.671-.768.403-.916.134-.768-1.159-1.596-1.176-1.508-1.965.473-3.829 2.158-13.518 2.587-15.802-2.232 5.172-4.537 11.67-5.719 15.332-.251.772-.71.722-.99.15-.414-.822-1.182-1.225-1.3-2.165-.414-3.007.458-8.75.576-12.394-1.197 3.963-3.236 11.688-4.123 15.164-.37 1.445-1.595 1.193-1.27-.184 1.359-5.862 4.27-16.19 5.526-19.9.295-.89 1.078-.84 1.714-1.21ZM15.125.01c-.4-.1-1.552.604-2.26.722-.222.067-.43.319-.503.52a238.044 238.044 0 0 0-2.985 8.246c-1.294.27-2.585.56-3.872.873 1.05-3.023 2.099-6.028 3.118-8.9.503-1.445-.827-1.579-1.345-.135-.664 1.864-1.92 5.374-3.31 9.455-1.02.285-2.127.604-3.25.99-.828.253-.858.504-.503 1.076.207.302.591.268.783.504.488.57.784 1.259 1.655 1.36a187.51 187.51 0 0 0-2.246 7.053c-.443 1.46.813 1.763 1.286.218.768-2.468 1.58-4.97 2.423-7.507.695-.167 2.365-.57 3.916-.974-1.226 3.863-2.024 6.768-2.35 8.195-.058.27.06.404.104.538.399.672.813.705 1.345 1.562.133.235.62.352.798-.219a293.8 293.8 0 0 1 3.383-10.882c.459-.134 1.286-.352 1.789-1.192.886-1.511 1.138-1.209 1.374-1.663.266-.587.074-1.108-.872-.99 0 0-.355.033-1.034.117 1.063-3.073 2.01-5.676 2.66-7.674.221-.689.25-1.193-.104-1.293Z" fill="#000"/><path fill-rule="evenodd" clip-rule="evenodd" d="M14.086 19.093c.153-.221.293-.45.419-.661.56-.942.014-1.495-.562-.94-.082.085-.168.179-.252.276l-.282-1.008c.264-.368.521-.746.74-1.133.927-1.632-.885-2.569-1.669-1.51-.413.553-.31 1.107-.192 1.594.034.147.088.356.154.61-.288.34-.566.692-.834 1.053-.901 1.175-.65 2.69.296 3.023.57.2 1.109-.092 1.575-.56l.065.19c.251.706 1.035.487.724-.37-.05-.143-.112-.337-.182-.564Zm-1.283-1.48c.077.275.159.563.241.839a2.437 2.437 0 0 1-.313.265c-.366.241-.635-.016-.162-.738.077-.125.156-.246.234-.365Zm.296-2.056c-.027-.078-.043-.154-.057-.215-.265-1.126.87-.825.295-.084-.081.105-.155.209-.238.3Z" fill="#000"/></svg>