<svg xmlns="http://www.w3.org/2000/svg" width="62" height="70" fill="none" viewBox="0 0 62 70"><path fill="#000" d="M27.033 15.67c-4.217.907-8.318 4.1-10.075 7.849-.85 1.845-1.699 5.184-1.728 6.707v.82h7.82l.176-1.435c.322-2.607 1.786-4.716 4.159-5.975 1.67-.908 5.36-.908 7.03 0 2.928 1.582 3.982 3.573 4.187 8.054l.147 3.163h7.908l-.176-3.602c-.234-5.36-1.289-8.172-4.159-11.276-3.603-3.896-9.519-5.565-15.289-4.306ZM20.736 41.209l-5.506 6.063v7.497h31.339v-7.615l-10.75-.058-10.777-.088 4.803-5.272c2.636-2.9 5.067-5.565 5.39-5.945l.585-.645h-9.607l-5.477 6.063Z"/></svg>