<svg width="70" height="14" fill="none" xmlns="http://www.w3.org/2000/svg"><g clip-path="url(#a)" fill="#000"><path d="M24.709 8.064 24.29 9.17h-.034c-.07-.25-.197-.63-.406-1.086l-2.237-5.263h-2.19v8.389h1.448V6.034c0-.325 0-.694-.011-1.15-.012-.228-.035-.402-.046-.532h.034c.07.326.151.564.209.716l2.689 6.121h1.02l2.665-6.175c.058-.141.116-.423.174-.662h.035a73.13 73.13 0 0 0-.07 1.508v5.318h1.542V2.8h-2.11L24.71 8.064Zm5.864-2.898h1.507v6.012h-1.507V5.166Zm.765-2.54a.936.936 0 0 0-.638.24.748.748 0 0 0-.266.585c0 .228.092.423.266.575a.928.928 0 0 0 .638.228.96.96 0 0 0 .637-.228.742.742 0 0 0 .267-.575.78.78 0 0 0-.267-.586c-.15-.152-.37-.239-.637-.239Zm6.084 2.486a4.478 4.478 0 0 0-.846-.087c-.684 0-1.31.14-1.831.423-.521.282-.939.673-1.205 1.161-.278.5-.417 1.075-.417 1.737 0 .575.139 1.085.405 1.552.267.456.638.825 1.136 1.074.475.25 1.031.38 1.657.38.719 0 1.333-.141 1.82-.402l.011-.01V9.637l-.058.044c-.22.152-.475.282-.73.358-.266.087-.51.13-.718.13-.603 0-1.078-.163-1.414-.52-.348-.348-.522-.826-.522-1.423 0-.618.174-1.107.533-1.465.36-.358.835-.542 1.414-.542.487 0 .985.152 1.437.455l.058.044V5.34l-.011-.011c-.197-.076-.417-.163-.719-.217Zm4.972-.044c-.37 0-.718.109-1.02.337-.255.195-.429.477-.58.814h-.01V5.166h-1.508v6.012h1.507V8.107c0-.52.116-.955.371-1.27.255-.325.58-.488.973-.488.14 0 .279.032.453.054.162.044.278.087.359.141l.058.044V5.177l-.035-.011c-.104-.065-.313-.098-.568-.098Zm4.103-.032c-1.055 0-1.901.293-2.492.868-.603.575-.892 1.367-.892 2.366 0 .933.3 1.693.88 2.246.58.543 1.368.825 2.353.825 1.032 0 1.854-.293 2.445-.879.603-.586.893-1.367.893-2.333 0-.955-.278-1.715-.846-2.269-.545-.553-1.345-.824-2.341-.824Zm1.205 4.623c-.278.336-.719.5-1.263.5-.545 0-.985-.164-1.298-.522-.313-.336-.464-.825-.464-1.443 0-.64.162-1.129.464-1.476.313-.347.741-.521 1.286-.521.533 0 .95.163 1.252.5.301.336.463.824.463 1.464-.023.651-.15 1.161-.44 1.498Zm5.343-1.997c-.476-.184-.777-.326-.916-.445-.116-.108-.174-.26-.174-.456 0-.163.07-.325.244-.434.174-.108.37-.163.66-.163.255 0 .522.044.777.109s.486.163.672.293l.058.043V5.285l-.035-.01a4.398 4.398 0 0 0-.684-.185 4.952 4.952 0 0 0-.741-.065c-.719 0-1.31.163-1.774.52-.463.337-.683.793-.683 1.325 0 .282.046.532.15.738.105.206.255.401.464.564.209.152.51.326.927.488.348.142.614.25.776.337.163.087.267.184.348.26a.587.587 0 0 1 .093.337c0 .401-.325.597-.985.597a2.76 2.76 0 0 1-.835-.141 3.312 3.312 0 0 1-.846-.402l-.058-.043v1.378l.035.01c.22.098.487.164.812.24.324.054.614.097.869.097.776 0 1.414-.163 1.866-.52.463-.348.707-.793.707-1.368 0-.402-.116-.76-.371-1.031a4.773 4.773 0 0 0-1.356-.749Zm5.702-2.626c-1.055 0-1.901.293-2.492.868s-.892 1.367-.892 2.366c0 .933.3 1.693.88 2.246.58.543 1.368.825 2.353.825 1.032 0 1.854-.293 2.445-.879.603-.586.893-1.367.893-2.333 0-.955-.278-1.715-.846-2.269-.545-.553-1.345-.824-2.341-.824Zm1.193 4.623c-.278.336-.718.5-1.263.5-.556 0-.985-.164-1.298-.522-.313-.336-.463-.825-.463-1.443 0-.64.162-1.129.463-1.476.313-.347.742-.521 1.287-.521.521 0 .95.163 1.251.5.301.336.464.824.464 1.464 0 .651-.15 1.161-.44 1.498Zm10.048-3.332V5.166H68.47v-1.78l-.046.01-1.437.402-.035.011v1.357H64.68v-.76c0-.347.093-.618.255-.792.163-.174.406-.26.707-.26.209 0 .43.043.673.14l.058.033V2.301l-.035-.011a2.867 2.867 0 0 0-.846-.109c-.452 0-.846.098-1.206.26a1.95 1.95 0 0 0-.822.771 2.11 2.11 0 0 0-.302 1.118v.836h-1.054v1.15h1.054v4.862h1.518v-4.85h2.272V9.42c0 1.27.637 1.91 1.912 1.91.209 0 .429-.032.638-.065.22-.043.382-.098.475-.141l.011-.01V9.951l-.058.043a1.014 1.014 0 0 1-.313.13 1.13 1.13 0 0 1-.3.044c-.302 0-.51-.065-.661-.228-.14-.152-.209-.401-.209-.77V6.327h1.541ZM0 0h7.104v6.653H0V0ZM7.846 0h7.104v6.653H7.846V0ZM0 7.347h7.104V14H0V7.347ZM7.846 7.347h7.104V14H7.846V7.347Z"/></g><defs><clipPath id="a"><path fill="#fff" d="M0 0h70v14H0z"/></clipPath></defs></svg>