<svg width="51" height="19" fill="none" xmlns="http://www.w3.org/2000/svg"><g clip-path="url(#a)"><path d="M6.051 18.628c-1.489-.061-2.707-.483-3.66-1.266a7.443 7.443 0 0 1-.76-.787 4.968 4.968 0 0 1-.825-1.535c-.539-1.671-.261-3.864.794-6.27.903-2.06 2.298-4.104 4.73-6.934C6.688 1.42 7.755.202 7.762.202c.002 0-.056.104-.129.231C7.001 1.53 6.46 2.821 6.165 3.94c-.474 1.793-.417 3.332.167 4.526.403.822 1.093 1.535 1.87 1.928 1.358.69 3.348.746 5.777.167.168-.04 8.457-2.317 18.42-5.06C42.363 2.756 50.517.514 50.52.515c.002.003-23.15 10.255-35.168 15.573-1.904.843-2.412 1.055-3.307 1.38-2.288.832-4.337 1.228-5.993 1.16Z" fill="#000"/></g><defs><clipPath id="a"><path fill="#fff" d="M0 0h51v19H0z"/></clipPath></defs></svg>