<svg width="86" height="17" fill="none" xmlns="http://www.w3.org/2000/svg"><g clip-path="url(#a)" fill="#000"><path d="m29.51 5.499 3.643 5.67V5.498h1.539v8.998h-1.23l-3.746-5.858v5.857h-1.59V5.5h1.385Zm13.134 6.613c0 1.407-1.026 2.533-3.027 2.533-2 0-2.975-1.078-2.975-2.532V9.955c0-1.408 1.026-2.533 2.975-2.533 2.001 0 3.027 1.078 3.027 2.532v2.158Zm-4.36-.094c0 .938.461 1.407 1.333 1.407.924 0 1.334-.516 1.334-1.407V9.954c0-.89-.41-1.407-1.334-1.407-.923 0-1.333.516-1.333 1.408v2.063ZM48.492 8.97c-.205-.141-.462-.187-.718-.187-.975 0-1.54.657-1.642 1.781v3.941H44.44V7.516h1.437l.102 1.173c.462-.891 1.078-1.266 1.847-1.266.308 0 .564.046.821.187l-.154 1.36Zm5.49-.938V5.498h1.64v9.007h-1.436l-.103-.657a2.59 2.59 0 0 1-.933.587 2.78 2.78 0 0 1-1.119.163c-1.538 0-2.36-1.032-2.36-2.627v-1.923c0-1.641.822-2.626 2.463-2.626.667 0 1.334.187 1.847.609Zm0 1.267a1.455 1.455 0 0 0-.601-.483 1.6 1.6 0 0 0-.785-.127c-.872 0-1.283.469-1.283 1.454v1.876c0 .938.41 1.407 1.231 1.407.564 0 1.078-.235 1.437-.656V9.298ZM62.07 14.495h-2.254l-3.023-8.996h2.409l1.742 6.606 1.742-6.607h2.408l-3.023 8.997Zm4.255-8.996v8.996h2.151v-3.046h1.487c1.845 0 2.921-1.125 2.921-2.953 0-1.874-1.127-2.999-3.075-2.999h-3.484V5.5Zm3.433 4.404h-1.23V7.138h1.23c.666 0 .974.375.974 1.36 0 .983-.308 1.405-.975 1.405h.001Zm9.532.563V5.499h1.895v8.996H79.7L76.317 9.34v5.155h-1.896V5.499h1.588l3.28 4.967Zm-70.8-2.14 1.994-4.396 3.12 6.968 1.278-2.105 3.939 8.044c1.79-1.87 2.812-4.255 2.812-6.78C21.736 4.63 16.98.095 10.996 0 5.013-.092.101 4.257 0 9.73v.373c0 2.48.972 4.864 2.813 6.736L7.569 6.97l.921 1.355Z"/></g><defs><clipPath id="a"><path fill="#fff" d="M0 0h86v17H0z"/></clipPath></defs></svg>