<svg width="41" height="18" fill="none" xmlns="http://www.w3.org/2000/svg"><path d="M13.637 3.117c4.927.395 7.701-1.123 8.653-3.117h5.031c-1.513 4.761-6.23 7.744-13.684 7.336v-4.22Z" fill="#000"/><path fill-rule="evenodd" clip-rule="evenodd" d="m30.955 7.34-1.804 2.758 4.168 6.64V7.338h-2.364Zm-12.477.559V16.4l3.935-6.362-1.846-2.632c1.543-.463 2.943-1.18 4.164-2.22l1.189 1.64 2.256-3.71H41v4.21h-2.884V17.61h-9.94l-2.544-4.135-2.644 4.135h-9.35v-2.827c-.672 2-2.793 3.217-7 3.217C.398 18 .096 15.6 0 12.85h4.935c.016.82.143 1.416.445 1.806.319.39.749.595 1.385.595 1.003 0 2.085-.308 2.085-1.498 0-.267-.079-.492-.206-.677-.653-.943-6.145-1.641-7.689-3.385-.62-.698-.812-1.744-.812-2.585 0-3.242 2.308-4.698 6.909-4.698 4.886 0 6.043 1.861 6.107 4.918H8.407c-.032-.82-.258-1.461-.589-1.759-.32-.287-.598-.42-1.085-.41-1.018.022-1.56.492-1.56 1.252 0 .225.064.512.207.676.749.923 6.065 1.58 7.593 3.344.243.28.49.644.665 1.15V8.167c1.579.064 3.222.007 4.84-.268Z" fill="#000"/></svg>