<svg width="46" height="22" fill="none" xmlns="http://www.w3.org/2000/svg"><path fill-rule="evenodd" clip-rule="evenodd" d="M41.935 19.962a2.04 2.04 0 0 1-.401.275c-.257.147-.535.298-.789.298a.549.549 0 0 1-.501-.274c-.021-.033-.04-.066-.061-.096a1.961 1.961 0 0 1-.198-.419c-.403.457-1.123.844-2.17.844-.887 0-1.587-.259-2.09-.805-.488-.532-.767-1.297-.767-2.353V11.4c0-.255.046-.428.204-.565.164-.145.479-.194.879-.194.39 0 .705.05.869.196.157.137.202.31.202.563v5.754c0 .857.305 1.28 1.184 1.28.882 0 1.403-.604 1.403-1.432V11.4c0-.255.044-.428.203-.565.163-.145.465-.194.867-.194.39 0 .706.05.87.196.156.137.2.31.2.563v6.697c0 .222.03.419.067.577.035.155.076.271.099.338.071.165.136.326.136.541 0 .181-.108.317-.206.409Zm-9.598-6.978v6.687c0 .256-.045.429-.204.566-.164.145-.478.194-.867.194-.402 0-.718-.05-.881-.196-.158-.137-.202-.309-.202-.563v-6.51l-.993.083c-.888.074-.922-.793-.922-1.275 0-.953.305-1.295.855-1.295h4.28c.418 0 .735.154.86.843.137.766.08 1.3-.665 1.36l-1.261.106Zm13.46 7.274c-.164.144-.479.193-.867.193-.402 0-.717-.05-.881-.195-.158-.137-.202-.31-.202-.564V11.4c0-.255.045-.428.204-.565.164-.145.479-.194.878-.194.391 0 .706.05.87.196.157.136.201.31.201.563v8.292c0 .256-.044.429-.204.566ZM1.136 6.128h5.694c.558 0 .979.203 1.144 1.113.185 1.012.109 1.717-.883 1.798l-1.788.146C6.62 18.73 14.311 21.84 18.5 11.561c.693-1.701.92-2.011 1.68-1.795 1.028.293 1.17.901.679 2.617-3.62 12.672-15.79 13.942-18.178-2.98l-1.452.12C.047 9.62 0 8.474 0 7.837c0-1.258.407-1.71 1.138-1.71ZM21.84 0c.417 0 .825.142 1.172.409.347.266.618.645.777 1.089.16.443.202.93.12 1.401-.08.471-.282.903-.577 1.243-.295.339-.671.57-1.08.664-.41.093-.834.045-1.22-.138a2.204 2.204 0 0 1-.947-.894 2.691 2.691 0 0 1-.356-1.348c0-.643.223-1.26.618-1.715C20.742.256 21.28 0 21.84 0Z" fill="#000"/></svg>