<svg width="82" height="20" fill="none" xmlns="http://www.w3.org/2000/svg"><path d="M28.788 4.865h-3.607c-.328 0-.588.304-.601.669v.897c0 .243.177.425.396.425h.601c.014 0 .041.015.041.03.014.016.014.046.014.077l-1.408 4.712a.074.074 0 0 1-.068.046c-.027 0-.055-.015-.055-.046L21.997 5.29a.414.414 0 0 0-.342-.273h-1.27a.415.415 0 0 0-.342.273l-2.118 6.385c0 .03-.027.046-.055.046a.074.074 0 0 1-.068-.046l-1.408-4.712c0-.03 0-.046.014-.076.014-.016.027-.03.041-.03h.601c.219 0 .397-.198.397-.426v-.897c0-.365-.274-.67-.602-.67h-3.607a.436.436 0 0 0-.328.183.432.432 0 0 0-.055.365c.055.167.11.365.178.563.068.197.123.395.178.562.054.182.204.304.368.304h.602c.027 0 .054.015.068.06l2.801 9.183c.055.182.205.304.37.304h.874c.164 0 .3-.106.369-.274.779-2.478 2.24-7.22 2.31-7.373.013-.03.04-.06.068-.06.027 0 .054.015.068.06.054.168 1.53 4.895 2.31 7.389.054.167.204.288.368.288h.875c.164 0 .314-.121.369-.304l2.801-9.182c.027-.06.055-.06.068-.06h.602c.164 0 .314-.122.369-.29.054-.182.123-.38.177-.562.055-.198.123-.395.178-.562a.432.432 0 0 0-.055-.365c-.136-.152-.26-.228-.383-.228Zm42.252 9.668h-.656c-.095 0-.177-.09-.19-.213V5.275c0-.167-.124-.289-.26-.289h-1.927a.258.258 0 0 0-.205.107l-.793 1.11c-.04.045-.054.121-.054.182 0 .152.109.289.26.304h.245c.096 0 .178.091.192.213v7.403c0 .061-.014.122-.055.168-.205.304-.67.942-.888 1.261a.342.342 0 0 0-.069.198.3.3 0 0 0 .26.304h3.348c.068 0 .136-.03.191-.076l.78-1.095c.163-.243.04-.532-.179-.532ZM68.909 3.77c.792 0 1.435-.715 1.435-1.596 0-.882-.643-1.596-1.435-1.596-.793 0-1.435.714-1.435 1.596 0 .881.642 1.596 1.435 1.596ZM81.562 5.929c0-.152-.068-.304-.26-.304h-.327v.973h.123v-.365h.109l.219.365h.15l-.232-.365c.163-.015.218-.167.218-.304Zm-.464.182v-.365h.218c.082 0 .137.077.137.168v.015c.013.091-.055.167-.137.182h-.218Z" fill="#000"/><path d="M81.248 5.275c-.41 0-.751.38-.751.836 0 .456.341.836.751.836s.752-.38.752-.836c0-.456-.342-.836-.752-.836Zm0 1.55c-.355 0-.642-.318-.642-.714v-.015c0-.38.287-.7.629-.7h.013c.356 0 .643.32.643.715 0 .396-.301.715-.643.715ZM38.204 14.58c-.56.03-.834-.259-.834-.973V8.528c0-2.22-1.68-3.633-3.552-3.633-2.925 0-3.977 1.55-4.1 3.269a.295.295 0 0 0 .26.319h1.448c.137 0 .246-.122.26-.274.068-.897.615-1.566 1.53-1.566 1.011 0 1.613.563 1.613 1.855v1.11h-.52c-1.803 0-3.033.258-3.867.836-.833.578-1.257 1.657-1.257 2.903 0 .928.287 1.688.86 2.296.575.608 1.244.867 2.119.867a3.36 3.36 0 0 0 1.517-.38 4.583 4.583 0 0 0 1.27-.913c.083-.076.192-.076.274.016.014.015.027.03.027.045.41.806.861 1.064 1.708 1.064.766 0 1.135-.805 1.476-1.277.123-.197-.014-.501-.232-.486Zm-3.362-.806c-.013.076-.109.167-.15.213-.232.213-.492.41-.765.547-.246.122-.52.183-.793.168-.396 0-.792-.168-1.052-.487-.26-.32-.41-.745-.396-1.186 0-.669.218-1.11.67-1.429.45-.334 1.175-.486 2.063-.486h.437l-.014 2.66Zm30.801.806c-.56.03-.834-.259-.834-.973V8.528c0-2.22-1.68-3.633-3.552-3.633-2.925 0-3.977 1.55-4.1 3.269a.295.295 0 0 0 .26.319h1.448c.137 0 .246-.122.26-.274.068-.897.615-1.566 1.53-1.566 1.012 0 1.613.563 1.613 1.855v1.11h-.52c-1.803 0-3.033.258-3.867.836-.833.578-1.257 1.657-1.257 2.903 0 .928.287 1.688.861 2.296.574.608 1.244.867 2.118.867a3.36 3.36 0 0 0 1.517-.38 4.58 4.58 0 0 0 1.27-.913c.083-.076.192-.076.274.016.014.015.027.03.027.045.41.806.861 1.064 1.709 1.064.765 0 1.134-.805 1.475-1.277.11-.197-.027-.501-.232-.486Zm-3.375-.806c-.014.076-.11.167-.15.213-.233.213-.492.41-.766.547-.246.122-.519.183-.792.168-.397 0-.793-.168-1.053-.487-.26-.32-.41-.745-.396-1.186 0-.669.219-1.11.67-1.429.45-.334 1.175-.486 2.063-.486h.438v2.66h-.014ZM79.24 4.956c-.137-.076-.465-.122-.752-.122-.465 0-.834.076-1.161.228l-.028.016c-.123.06-.232.136-.341.228-.41.288-.78.638-1.08 1.033-.314.41-.137.122-.164-.076V5.26a.301.301 0 0 0-.273-.304h-1.927a.232.232 0 0 0-.191.106c-.055.061-.601.836-.806 1.125-.123.168-.041.487.205.487h.246c.109 0 .19.091.19.213v7.433c0 .061-.013.122-.04.168-.191.258-.67.927-.902 1.261-.041.046-.055.122-.055.183a.3.3 0 0 0 .26.304h4.14c.15 0 .274-.137.274-.304v-1.11c0-.167-.123-.304-.274-.304h-.656c-.109 0-.19-.091-.19-.213V9.973c.067-2.068 1.174-2.691 1.707-2.874l.082-.03h.027c.15-.046.287-.06.438-.06.628 0 .86.106 1.202.197.137.045.274-.137.274-.304V5.214c-.014-.106-.11-.212-.205-.258Zm-22.547.03h-3.007c-.11 0-.191-.09-.191-.213V3.116c0-.805.369-1.596 1.134-1.596.875 0 1.011.821 1.039 1.43.013.151.123.273.26.288h1.243c.136 0 .246-.137.246-.289C57.389.882 56.214 0 54.315 0c-1.148 0-1.913.395-2.473 1.17-.574.776-.861 1.627-.861 3.178v.41a.219.219 0 0 1-.192.213l-5.124.015h-.014c-.15 0-.26.137-.26.29V6.4c0 .167.124.304.274.304h.547c.109 0 .19.091.19.213 0 .03 0 .06-.013.076-.014.03-1.407 3.649-1.981 5.123a.183.183 0 0 1-.178.122c-.082 0-.136-.046-.177-.122-.588-1.474-2.01-5.123-2.01-5.123-.013-.03-.013-.046-.013-.076 0-.122.082-.213.191-.213h.383c.15 0 .273-.137.273-.304V5.275c0-.167-.123-.289-.26-.289h-4.645c-.15 0-.26.137-.274.304 0 .046.014.092.028.137.136.274.45.928.533 1.125a.258.258 0 0 0 .218.152h.888c.069 0 .137.046.178.122.027.076 3.293 8.24 3.416 8.528.123.365.123.776 0 1.14-.15.67-1.161 1.886-1.722 1.657-.382-.152-.437-.927-.901-1.018a.445.445 0 0 0-.246.03c-.082.03-.834 1.11-.998 1.293a.348.348 0 0 0 0 .395c.41.471 1.107 1.11 2.09 1.14 1.217.06 2.433-.122 3.54-2.493 0 0 3.553-9.654 3.977-10.703a.182.182 0 0 1 .177-.106h1.872c.11 0 .192.091.192.213v7.418c0 .061-.014.122-.055.168-.219.319-.67.942-.888 1.261-.041.046-.055.122-.055.183 0 .167.123.289.26.289h4.195c.15 0 .273-.137.273-.304v-1.11c0-.167-.123-.304-.273-.304h-.683c-.096 0-.178-.091-.192-.213V6.871c0-.106.082-.197.192-.212h2.213a.258.258 0 0 0 .205-.107c.192-.273.574-.82.766-1.125.04-.045.054-.121.054-.182 0-.122-.11-.243-.26-.259ZM11.461 8.559l-.724-3.04a.287.287 0 0 0-.191-.213L7.813 4.5a.215.215 0 0 0-.246.076L5.75 6.628l3.826 4.257 1.83-2.037c.055-.076.083-.183.055-.29ZM.025 13.196l.724 3.04a.287.287 0 0 0 .191.213l2.733.806c.096.03.191 0 .246-.076l1.831-2.037-3.826-4.257-1.831 2.037a.293.293 0 0 0-.068.274ZM3.659 4.515l-2.733.806a.287.287 0 0 0-.191.213L.01 8.574c-.027.106 0 .213.069.274l1.845 2.037L5.75 6.628 3.919 4.591a.243.243 0 0 0-.26-.076ZM11.38 12.892l-1.804-2.007-3.826 4.257 1.803 2.006a.31.31 0 0 0 .315.091l2.65-.79a.353.353 0 0 0 .233-.259l.71-2.949a.4.4 0 0 0-.082-.35Z" fill="#000"/><path d="m5.749 6.628-3.826 4.257 3.826 4.256 3.826-4.256L5.75 6.628ZM11.461 8.559l-.724-3.04a.287.287 0 0 0-.191-.213L7.813 4.5a.215.215 0 0 0-.246.076L5.75 6.628l3.826 4.257 1.83-2.037c.055-.076.083-.183.055-.29Z" fill="#000"/><path d="m.025 13.196.724 3.04a.287.287 0 0 0 .191.213l2.733.806c.096.03.191 0 .246-.076l1.831-2.037-3.826-4.257-1.831 2.037a.293.293 0 0 0-.068.274ZM3.659 4.515l-2.733.806a.287.287 0 0 0-.191.213L.01 8.574c-.027.106 0 .213.069.274l1.845 2.037L5.75 6.628 3.919 4.591a.243.243 0 0 0-.26-.076ZM11.38 12.892l-1.804-2.007-3.826 4.257 1.803 2.006a.31.31 0 0 0 .315.091l2.65-.79a.353.353 0 0 0 .233-.259l.71-2.949a.4.4 0 0 0-.082-.35Z" fill="#000"/><path d="m5.749 6.628-3.826 4.257 3.826 4.256 3.826-4.256L5.75 6.628Z" fill="#000"/></svg>